<?xml version="1.0" standalone="no"?>
<!DOCTYPE svg PUBLIC "-//W3C//DTD SVG 20010904//EN"
 "http://www.w3.org/TR/2001/REC-SVG-20010904/DTD/svg10.dtd">
<svg version="1.0" xmlns="http://www.w3.org/2000/svg"
 width="144.000000pt" height="144.000000pt" viewBox="0 0 144.000000 144.000000"
 preserveAspectRatio="xMidYMid meet">
<metadata>
Created by potrace 1.14, written by Peter Selinger 2001-2017
</metadata>
<g transform="translate(0.000000,144.000000) scale(0.100000,-0.100000)"
fill="#000000" stroke="none">
<path d="M251 1420 c-103 -37 -174 -102 -220 -200 l-26 -55 0 -451 0 -450 34
-67 c40 -78 100 -138 173 -172 l53 -25 460 0 460 0 50 24 c73 34 136 95 173
166 l32 63 0 462 0 462 -30 60 c-37 73 -101 135 -178 171 l-57 27 -435 2
c-412 3 -438 2 -489 -17z"/>
</g>
</svg>
